<?xml version="1.0" encoding="UTF-8"?>
<svg version="1.1" xmlns="http://www.w3.org/2000/svg" width="675" height="675">
<path d="M0 0 C1.19615045 -0.00382555 2.3923009 -0.00765109 3.62469834 -0.01159257 C6.90933517 -0.020062 10.19382702 -0.01971348 13.47846735 -0.01541197 C17.03482547 -0.0129286 20.59115814 -0.02197878 24.14750671 -0.02944946 C31.10123678 -0.04215415 38.05492815 -0.04399544 45.00866786 -0.0416492 C50.6651985 -0.03986108 56.32171745 -0.04162624 61.97824669 -0.04587364 C62.78547081 -0.04646883 63.59269493 -0.04706402 64.42438039 -0.04767724 C66.06463701 -0.04888909 67.70489363 -0.05010322 69.34515025 -0.05131962 C84.7040039 -0.06217893 100.06283555 -0.06004034 115.42169043 -0.05393478 C129.44641747 -0.04876746 143.47107501 -0.06001905 157.49578831 -0.07903299 C171.92537555 -0.09844461 186.35492997 -0.10666155 200.78453034 -0.10290974 C208.87400901 -0.10100268 216.96342854 -0.10343674 225.0528965 -0.11762428 C231.93991441 -0.12958154 238.8268368 -0.13089458 245.71385614 -0.11883412 C249.22159646 -0.11297565 252.72916244 -0.11176097 256.23689079 -0.12383652 C283.36496403 -0.19861449 283.36496403 -0.19861449 295.5344696 3.26069641 C296.3380959 3.48852153 297.1417222 3.71634665 297.96970081 3.95107555 C321.85349296 11.40742177 339.72182962 28.31988132 351.2219696 50.19819641 C357.63249417 63.54642684 359.84594283 77.01629211 359.79516602 91.72622681 C359.79899156 92.92237726 359.80281711 94.11852771 359.80675858 95.35092515 C359.81522801 98.63556198 359.81487949 101.92005383 359.81057799 105.20469415 C359.80809461 108.76105227 359.8171448 112.31738494 359.82461548 115.87373352 C359.83732017 122.82746358 359.83916146 129.78115495 359.83681522 136.73489467 C359.83502709 142.3914253 359.83679226 148.04794426 359.84103966 153.7044735 C359.84163485 154.51169762 359.84223004 155.31892174 359.84284326 156.15060719 C359.8440551 157.79086382 359.84526924 159.43112044 359.84648564 161.07137706 C359.85734495 176.43023071 359.85520636 191.78906236 359.84910079 207.14791723 C359.84393347 221.17264428 359.85518506 235.19730182 359.87419901 249.22201512 C359.89361063 263.65160236 359.90182757 278.08115678 359.89807576 292.51075715 C359.8961687 300.60023581 359.89860276 308.68965535 359.9127903 316.77912331 C359.92474756 323.66614122 359.92606059 330.55306361 359.91400013 337.44008294 C359.90814166 340.94782327 359.90692698 344.45538925 359.91900253 347.9631176 C359.9937805 375.09119083 359.9937805 375.09119083 356.5344696 387.26069641 C356.30664449 388.06432271 356.07881937 388.86794901 355.84409046 389.69592762 C348.38774425 413.57971977 331.47528469 431.44805643 309.5969696 442.94819641 C296.24873918 449.35872098 282.77887391 451.57216964 268.06893921 451.52139282 C266.27471353 451.52713114 266.27471353 451.52713114 264.44424087 451.53298539 C261.15960404 451.54145482 257.87511219 451.5411063 254.59047186 451.5368048 C251.03411374 451.53432142 247.47778107 451.54337161 243.9214325 451.55084229 C236.96770243 451.56354698 230.01401106 451.56538827 223.06027135 451.56304202 C217.40374071 451.5612539 211.74722176 451.56301907 206.09069252 451.56726646 C205.2834684 451.56786165 204.47624428 451.56845684 203.64455882 451.56907007 C202.0043022 451.57028191 200.36404557 451.57149604 198.72378895 451.57271244 C183.36493531 451.58357176 168.00610366 451.58143316 152.64724878 451.5753276 C138.62252174 451.57016028 124.59786419 451.58141187 110.5731509 451.60042582 C96.14356366 451.61983743 81.71400924 451.62805437 67.28440887 451.62430257 C59.1949302 451.62239551 51.10551066 451.62482956 43.01604271 451.63901711 C36.1290248 451.65097436 29.2421024 451.6522874 22.35508307 451.64022694 C18.84734275 451.63436847 15.33977677 451.63315379 11.83204842 451.64522934 C-15.29602482 451.72000731 -15.29602482 451.72000731 -27.4655304 448.26069641 C-28.26915669 448.03287129 -29.07278299 447.80504618 -29.9007616 447.57031727 C-53.78455375 440.11397106 -71.65289041 423.2015115 -83.1530304 401.32319641 C-89.56355496 387.97496598 -91.77700362 374.50510072 -91.72622681 359.79516602 C-91.73005235 358.59901556 -91.7338779 357.40286511 -91.73781937 356.17046767 C-91.7462888 352.88583084 -91.74594028 349.60133899 -91.74163878 346.31669867 C-91.7391554 342.76034055 -91.74820559 339.20400788 -91.75567627 335.6476593 C-91.76838096 328.69392924 -91.77022225 321.74023787 -91.76787601 314.78649815 C-91.76608788 309.12996752 -91.76785305 303.47344857 -91.77210045 297.81691933 C-91.77269564 297.00969521 -91.77329083 296.20247109 -91.77390405 295.37078563 C-91.77511589 293.730529 -91.77633003 292.09027238 -91.77754643 290.45001576 C-91.78840574 275.09116212 -91.78626715 259.73233046 -91.78016158 244.37347559 C-91.77499426 230.34874855 -91.78624585 216.324091 -91.8052598 202.2993777 C-91.82467142 187.86979046 -91.83288836 173.44023605 -91.82913655 159.01063567 C-91.82722949 150.92115701 -91.82966355 142.83173747 -91.84385109 134.74226952 C-91.85580835 127.8552516 -91.85712138 120.96832921 -91.84506092 114.08130988 C-91.83920245 110.57356956 -91.83798777 107.06600358 -91.85006332 103.55827522 C-91.92484129 76.43020199 -91.92484129 76.43020199 -88.4655304 64.26069641 C-88.12379272 63.05525696 -88.12379272 63.05525696 -87.77515125 61.8254652 C-80.31880504 37.94167305 -63.40634548 20.07333639 -41.5280304 8.57319641 C-28.17979997 2.16267184 -14.7099347 -0.05077682 0 0 Z " fill="#000000" transform="translate(203.4655303955078,111.73930358886719)"/>
<path d="M0 0 C1.43806503 -0.00503792 1.43806503 -0.00503792 2.90518188 -0.01017761 C6.06082471 -0.01964217 9.2164142 -0.02162854 12.37207031 -0.02270508 C14.57773866 -0.02592106 16.7834068 -0.02928539 18.98907471 -0.03279114 C23.60893244 -0.03877137 28.22877149 -0.0406322 32.84863281 -0.04003906 C38.74723579 -0.03993757 44.64571804 -0.05358162 50.54429245 -0.07081127 C55.09983869 -0.08197048 59.65535611 -0.08395706 64.21091461 -0.08342934 C66.38445705 -0.08460385 68.55800036 -0.08899575 70.73152924 -0.0967617 C73.78204113 -0.10663981 76.83229581 -0.10365275 79.8828125 -0.09765625 C81.20960526 -0.10608551 81.20960526 -0.10608551 82.5632019 -0.11468506 C97.6204535 -0.04006794 110.11822708 3.7174394 121.20019531 14.14526367 C132.60963635 25.91124975 134.0696384 39.66811915 133.83457565 55.21909714 C133.81059645 56.74102613 133.81059645 56.74102613 133.78613281 58.29370117 C133.77491857 60.40360294 133.76638894 62.51352051 133.76040649 64.6234436 C133.7376836 70.13106723 133.6789055 75.63771567 133.61218262 81.1449585 C133.55040035 86.78294693 133.52331523 92.42109556 133.49316406 98.05932617 C133.42914416 109.08839647 133.32696867 120.11674844 133.20019531 131.14526367 C134.37259766 131.13860184 135.545 131.13194 136.75292969 131.12507629 C147.81694913 131.06418667 158.88093446 131.01925328 169.94508362 130.98982716 C175.63289387 130.97419018 181.32056855 130.95298767 187.00830078 130.91894531 C192.50017627 130.88628196 197.99192157 130.86839585 203.48388672 130.86063194 C205.57619271 130.85510098 207.66849181 130.84430037 209.76074219 130.8280735 C212.69774619 130.80620671 215.63421639 130.80330064 218.57128906 130.8046875 C219.86062599 130.78850876 219.86062599 130.78850876 221.17601013 130.77200317 C232.36102414 130.82892596 243.43299973 136.24813306 251.51269531 143.89526367 C262.62036363 155.77841602 264.33089819 167.91636576 264.37719727 183.52929688 C264.38376846 184.5144931 264.39033966 185.49968933 264.39710999 186.51473999 C264.41665571 189.74184266 264.42846109 192.9688993 264.43847656 196.19604492 C264.44255209 197.30700216 264.44662762 198.4179594 264.45082664 199.56258202 C264.47160385 205.43901757 264.48594353 211.31543032 264.49536133 217.19189453 C264.50643101 223.23045574 264.54086196 229.26864908 264.58053303 235.30708027 C264.60677793 239.98022609 264.61505997 244.65328501 264.61864281 249.32649803 C264.62348535 251.55143924 264.63503192 253.77637718 264.6536808 256.0012455 C264.7905108 273.40111849 263.83728961 287.24013065 251.82519531 300.83276367 C239.89314082 311.34433549 228.97500183 314.29566753 213.27677917 314.29243469 C212.30581954 314.29611138 211.3348599 314.29978807 210.33447725 314.30357617 C207.09594486 314.31454871 203.85744462 314.31844582 200.61889648 314.32226562 C198.29076538 314.32853494 195.96263526 314.33518216 193.63450623 314.34217834 C186.00406585 314.36315871 178.3736254 314.37357249 170.74316406 314.38354492 C168.11217043 314.3875942 165.48117691 314.39171117 162.85018349 314.395895 C151.90647137 314.41275202 140.9627613 314.42738844 130.0190382 314.43464375 C127.18481126 314.43655336 124.35058433 314.43847374 121.51635742 314.44042969 C120.45982209 314.4411553 120.45982209 314.4411553 119.38194261 314.44189557 C107.96994654 314.45019737 96.55805522 314.47554274 85.14610489 314.50801037 C73.41061765 314.54112466 61.6751836 314.55909618 49.9396494 314.56228799 C43.35814064 314.5646367 36.77679788 314.57357509 30.19533348 314.59874916 C24.00400023 314.62205046 17.81294207 314.62625461 11.62157631 314.61598778 C9.35408741 314.61549288 7.08658487 314.62179959 4.81913757 314.63554382 C-10.07012434 314.72072162 -22.14675817 314.45832948 -33.79980469 304.14526367 C-34.47914063 303.55874023 -35.15847656 302.9722168 -35.85839844 302.36791992 C-43.27745344 295.50985206 -49.11967114 286.19044934 -49.98773468 275.92227137 C-50.06556994 273.33268719 -50.08078313 270.74976901 -50.07395935 268.15901184 C-50.07919603 267.16919443 -50.08443271 266.17937703 -50.08982807 265.15956515 C-50.10479973 261.85112726 -50.10553261 258.54284441 -50.10620117 255.234375 C-50.11382459 252.85875183 -50.1222524 250.48313113 -50.13142395 248.10751343 C-50.15335869 241.65897979 -50.16218877 235.21048054 -50.16725039 228.76191545 C-50.17051372 224.73065787 -50.17704002 220.69940978 -50.18425179 216.66815758 C-50.20381079 205.49287252 -50.22021906 194.31759625 -50.22312832 183.14229298 C-50.22331589 182.42792803 -50.22350346 181.71356309 -50.22369671 180.97755073 C-50.22406295 179.52954527 -50.22442665 178.08153981 -50.22478782 176.63353435 C-50.22497063 175.91480493 -50.22515345 175.19607551 -50.2253418 174.45556641 C-50.22552235 173.73595325 -50.2257029 173.0163401 -50.22588892 172.27492049 C-50.22942873 160.6210088 -50.25644212 148.96728209 -50.29383969 137.31343452 C-50.33198362 125.33049359 -50.35128624 113.34764432 -50.35158783 101.36464137 C-50.35217104 94.64388419 -50.36109253 87.92338103 -50.38958549 81.20267677 C-50.41579863 74.87833333 -50.41795266 68.55442602 -50.40192986 62.23005295 C-50.40011795 59.91460785 -50.40678257 57.59913748 -50.42274857 55.28374672 C-50.52342325 39.73017212 -49.87513501 27.14562158 -38.79980469 15.14526367 C-27.24992099 3.65872486 -16.1441578 -0.00819639 0 0 Z " fill="#FDFDFD" transform="translate(192.7998046875,217.854736328125)"/>
<path d="M0 0 C1.03995117 -0.00350464 2.07990234 -0.00700928 3.15136719 -0.01062012 C6.5764033 -0.01939554 10.00123145 -0.01360211 13.42626953 -0.00683594 C15.8160913 -0.00818399 18.20591281 -0.0101257 20.59573364 -0.01263428 C25.60063288 -0.01558005 30.60546064 -0.01130618 35.61035156 -0.00195312 C42.01136927 0.00942863 48.412219 0.00288645 54.81323051 -0.00909805 C59.74786635 -0.01634192 64.6824627 -0.01401689 69.61709976 -0.00884247 C71.97650294 -0.00751232 74.33590975 -0.00913135 76.69530869 -0.01380157 C80.00009334 -0.01890694 83.30461017 -0.01109966 86.609375 0 C87.57589996 -0.00404846 88.54242493 -0.00809692 89.53823853 -0.01226807 C102.61569067 0.06869076 113.98086933 3.7351518 123.74658203 12.75878906 C130.78725465 20.23098678 136.51502887 30.41904985 136.58798218 40.86631775 C136.59658264 41.78700043 136.60518311 42.70768311 136.61404419 43.65626526 C136.62043411 45.16095619 136.62043411 45.16095619 136.62695312 46.69604492 C136.63921936 48.28956787 136.63921936 48.28956787 136.6517334 49.9152832 C136.67656344 53.4347274 136.69310141 56.95413118 136.70751953 60.47363281 C136.71284321 61.67835299 136.71816689 62.88307316 136.72365189 64.1243 C136.75037878 70.50644418 136.76975134 76.88856886 136.78417969 83.27075195 C136.79749399 88.53850769 136.82530189 93.80587379 136.86621094 99.07348633 C136.9156919 105.44535907 136.94032044 111.81687959 136.94740677 118.18893623 C136.95409482 120.60926723 136.96925246 123.02959114 136.99329758 125.44981194 C137.15273915 142.47564628 136.73075402 156.22227581 124.43408203 169.25878906 C119.60798627 174.13333961 114.73133744 177.55996532 108.43408203 180.25878906 C107.58845703 180.65066406 106.74283203 181.04253906 105.87158203 181.44628906 C99.45482145 183.58520926 92.77227561 183.41683358 86.08349609 183.43579102 C85.06626465 183.44236221 84.0490332 183.44893341 83.00097656 183.45570374 C79.65055251 183.47533747 76.30017304 183.48707622 72.94970703 183.49707031 C71.80040459 183.50114584 70.65110214 183.50522137 69.46697235 183.50942039 C63.38537275 183.53023728 57.30379543 183.54455879 51.22216797 183.55395508 C44.96024952 183.56501961 38.69868637 183.59943315 32.43689346 183.63912678 C27.60340742 183.66533614 22.77000562 183.6736507 17.93645477 183.67723656 C15.62891994 183.68209005 13.32138856 183.69366844 11.01392365 183.71227455 C7.77641473 183.73676105 4.53982027 183.73568351 1.30224609 183.72875977 C-0.10870331 183.74797485 -0.10870331 183.74797485 -1.54815674 183.76757812 C-13.19593963 183.67740132 -24.40318309 178.85144639 -33.01513672 171.03613281 C-42.97439619 160.64887211 -46.86969141 148.85596247 -46.85644531 134.74047852 C-46.86316254 133.70534622 -46.86987976 132.67021393 -46.87680054 131.60371399 C-46.89574479 128.19311678 -46.89970323 124.78271682 -46.90185547 121.37207031 C-46.90828682 118.98943502 -46.91501543 116.60680052 -46.92202759 114.22416687 C-46.93399213 109.23186412 -46.93770935 104.23963052 -46.93652344 99.24731445 C-46.93632052 92.87337021 -46.96359886 86.49987317 -46.99806786 80.12603474 C-47.02038912 75.20413711 -47.02435934 70.28234611 -47.02330399 65.36040306 C-47.02565298 63.01183726 -47.03443663 60.6632682 -47.04996872 58.31475258 C-47.15705244 40.44777312 -46.45021682 26.58084765 -33.42919922 13.03613281 C-23.34164728 3.61756338 -13.6314248 -0.05685948 0 0 Z " fill="#FDFDFD" transform="translate(395.56591796875,142.7412109375)"/>
<path d="M0 0 C0.73511307 0.00359528 1.47022614 0.00719055 2.22761536 0.01089478 C2.99829346 0.01074875 3.76897156 0.01060272 4.56300354 0.01045227 C7.12237823 0.01115157 9.68168104 0.01894471 12.24104309 0.02676392 C14.01081299 0.02862804 15.7805834 0.03005197 17.550354 0.03105164 C22.2176505 0.03487728 26.88491607 0.04470796 31.55220032 0.05575562 C36.31110719 0.06596873 41.07001905 0.07054904 45.82893372 0.07559204 C55.17334837 0.08633019 64.51774004 0.10340717 73.86213684 0.12442017 C73.8852606 10.40746554 73.90305209 20.69050479 73.91394901 30.97357082 C73.91917777 35.74790296 73.92627528 40.52221737 73.93757629 45.29653931 C73.94840544 49.90008278 73.95441373 54.50360916 73.95701408 59.10716438 C73.95886828 60.8675164 73.9624888 62.62786743 73.9678669 64.3882122 C73.9750777 66.84514294 73.97612777 69.30200212 73.97566223 71.75894165 C73.97925751 72.49405472 73.98285278 73.22916779 73.98655701 73.98655701 C73.976189 79.010368 73.976189 79.010368 72.86213684 80.12442017 C70.46943733 80.23000861 68.10545728 80.27120456 65.71199036 80.26968384 C64.96403198 80.27304245 64.21607361 80.27640106 63.44544983 80.27986145 C60.96063092 80.28939919 58.47587919 80.29131597 55.99104309 80.29238892 C54.27090425 80.29559954 52.55076569 80.29896346 50.83062744 80.30247498 C47.219949 80.30847332 43.60929452 80.31031416 39.99861145 80.3097229 C35.36342699 80.30962124 30.72839558 80.32327445 26.09324741 80.34049511 C22.53914682 80.35159336 18.98508348 80.35364278 15.43096733 80.35311317 C13.72167877 80.35429654 12.01238935 80.35873817 10.30311775 80.36644554 C7.91586094 80.37620176 5.52893964 80.37338488 3.14167786 80.36734009 C2.43043259 80.37295959 1.71918732 80.3785791 0.98638916 80.3843689 C-3.90954742 80.3527359 -3.90954742 80.3527359 -6.13786316 78.12442017 C-6.33082659 75.66045949 -6.40025529 73.30942242 -6.38078308 70.84487915 C-6.38268143 70.09516846 -6.38457977 69.34545776 -6.38653564 68.57302856 C-6.39024795 66.08875149 -6.37953378 63.60476512 -6.36833191 61.12051392 C-6.36714036 59.39940933 -6.36668689 57.67830408 -6.36694336 55.9571991 C-6.36537776 52.34826595 -6.35708165 48.7394319 -6.34367371 45.13052368 C-6.32667101 40.4941844 -6.32285968 35.85795399 -6.32361889 31.22158718 C-6.32334757 27.66752576 -6.31787274 24.11348835 -6.31061745 20.55943489 C-6.30742554 18.84932703 -6.30546216 17.13921644 -6.30472374 15.42910576 C-6.30256639 13.04421176 -6.29383578 10.65943554 -6.28312683 8.27456665 C-6.28358002 7.56129715 -6.2840332 6.84802765 -6.28450012 6.11314392 C-6.24561641 0.22017342 -5.87680834 0.0121284 0 0 Z " fill="#030303" transform="translate(200.1378631591797,400.8755798339844)"/>
<path d="M0 0 C26.07 0 52.14 0 79 0 C79 26.4 79 52.8 79 80 C59.7259375 80.0309375 59.7259375 80.0309375 40.0625 80.0625 C33.96793335 80.07615601 33.96793335 80.07615601 27.75024414 80.09008789 C22.80358887 80.09460449 22.80358887 80.09460449 20.4907074 80.09544373 C18.86908189 80.09698323 17.24745755 80.10050828 15.62583923 80.10557556 C13.17509968 80.11285343 10.72443032 80.11390741 8.27368164 80.11352539 C7.54654748 80.1171235 6.81941332 80.12072161 6.07024479 80.12442875 C1.11402634 80.11402634 1.11402634 80.11402634 0 79 C-0.09500705 76.53551872 -0.12556678 74.0992917 -0.11352539 71.63452148 C-0.11364593 70.85133828 -0.11376646 70.06815508 -0.11389065 69.26123905 C-0.11314152 66.71449552 -0.10551331 64.16782427 -0.09765625 61.62109375 C-0.09618683 60.05342647 -0.09516612 58.48575869 -0.09460449 56.91809082 C-0.08935161 51.09121975 -0.07539052 45.26435918 -0.0625 39.4375 C-0.041875 26.423125 -0.02125 13.40875 0 0 Z " fill="#010101" transform="translate(326,401)"/>
<path d="M0 0 C26.4 0 52.8 0 80 0 C80 26.07 80 52.14 80 79 C66.985625 79.020625 53.97125 79.04125 40.5625 79.0625 C36.44724854 79.071604 32.33199707 79.08070801 28.09204102 79.09008789 C23.08190918 79.09460449 23.08190918 79.09460449 20.73936462 79.09544373 C19.09690582 79.09698325 17.45444817 79.10050835 15.81199646 79.10557556 C13.32980371 79.11285326 10.84768027 79.11390741 8.36547852 79.11352539 C7.26072473 79.11892255 7.26072473 79.11892255 6.13365269 79.12442875 C1.11402634 79.11402634 1.11402634 79.11402634 0 78 C-0.09498807 75.56599859 -0.12557109 73.1606089 -0.11352539 70.72631836 C-0.11364593 69.95304734 -0.11376646 69.17977633 -0.11389065 68.38307285 C-0.11314154 65.86863435 -0.1055134 63.35426907 -0.09765625 60.83984375 C-0.09618683 59.29203324 -0.09516612 57.74422224 -0.09460449 56.19641113 C-0.08935167 50.4434332 -0.07539059 44.69046589 -0.0625 38.9375 C-0.041875 26.088125 -0.02125 13.23875 0 0 Z " fill="#010101" transform="translate(194,270)"/>
<path d="M0 0 C26.07 0 52.14 0 79 0 C79 26.07 79 52.14 79 79 C52.93 79 26.86 79 0 79 C0 52.93 0 26.86 0 0 Z " fill="#000000" transform="translate(401,195)"/>
</svg>
